<svg xmlns="http://www.w3.org/2000/svg" viewBox="0 0 100 100">
  <defs>
    <linearGradient id="grad1" x1="0%" y1="0%" x2="100%" y2="100%">
      <stop offset="0%" style="stop-color:#3b82f6;stop-opacity:1" />
      <stop offset="100%" style="stop-color:#1d4ed8;stop-opacity:1" />
    </linearGradient>
  </defs>

  <!-- Background circle -->
  <circle cx="50" cy="50" r="45" fill="url(#grad1)" stroke="#1e40af" stroke-width="2"/>

  <!-- Brain/AI symbol -->
  <path d="M30 35 Q35 25 45 30 Q50 25 55 30 Q65 25 70 35 Q75 40 70 50 Q75 60 70 65 Q65 75 55 70 Q50 75 45 70 Q35 75 30 65 Q25 60 30 50 Q25 40 30 35 Z"
        fill="white" opacity="0.9"/>

  <!-- Circuit lines inside brain -->
  <path d="M35 40 L45 40 L45 45 L55 45 L55 50 L65 50"
        stroke="#3b82f6" stroke-width="2" fill="none"/>
  <path d="M35 55 L40 55 L40 60 L50 60 L50 55 L65 55"
        stroke="#3b82f6" stroke-width="2" fill="none"/>

  <!-- Small dots for nodes -->
  <circle cx="35" cy="40" r="1.5" fill="#3b82f6"/>
  <circle cx="45" cy="45" r="1.5" fill="#3b82f6"/>
  <circle cx="55" cy="50" r="1.5" fill="#3b82f6"/>
  <circle cx="40" cy="60" r="1.5" fill="#3b82f6"/>
  <circle cx="50" cy="55" r="1.5" fill="#3b82f6"/>
  <circle cx="65" cy="55" r="1.5" fill="#3b82f6"/>
</svg>
